PathFileType	4	(X/Y/Z)	 s09c0103.trc
DataRate	CameraRate	NumFrames	NumMarkers	Units	OrigDataRate	OrigDataStartFrame	OrigNumFrames
200	200	4	50	mm	200	1751	2000
Frame#	Time	racr			lacr			c7			jug			rlel			rdr			llel			ldr			s2			lic			ric			lasi			rasi			rpsi			lpsi			rgt			lgt			rth1			rth2			rth3			rth4			rlfc			rmfc			rsh1			rsh2			rsh3			rsh4			rlmal			rmmal			rcal			rtoe			rmt5			lth1			lth2			lth4			lth3			llfc			lmfc			llmal			lmmal			lcal			lmt5			lsh1			lsh2			lsh3			lsh4			ltoe			SBIKE			LBIKE			RBIKE			
		X1	Y1	Z1	X2	Y2	Z2	X3	Y3	Z3	X4	Y4	Z4	X5	Y5	Z5	X6	Y6	Z6	X7	Y7	Z7	X8	Y8	Z8	X9	Y9	Z9	X10	Y10	Z10	X11	Y11	Z11	X12	Y12	Z12	X13	Y13	Z13	X14	Y14	Z14	X15	Y15	Z15	X16	Y16	Z16	X17	Y17	Z17	X18	Y18	Z18	X19	Y19	Z19	X20	Y20	Z20	X21	Y21	Z21	X22	Y22	Z22	X23	Y23	Z23	X24	Y24	Z24	X25	Y25	Z25	X26	Y26	Z26	X27	Y27	Z27	X28	Y28	Z28	X29	Y29	Z29	X30	Y30	Z30	X31	Y31	Z31	X32	Y32	Z32	X33	Y33	Z33	X34	Y34	Z34	X35	Y35	Z35	X36	Y36	Z36	X37	Y37	Z37	X38	Y38	Z38	X39	Y39	Z39	X40	Y40	Z40	X41	Y41	Z41	X42	Y42	Z42	X43	Y43	Z43	X44	Y44	Z44	X45	Y45	Z45	X46	Y46	Z46	X47	Y47	Z47	X48	Y48	Z48	X49	Y49	Z49	X50	Y50	Z50	
1751	8.7550	522.278997	1255.452162	-124.889719	482.043755	1235.475019	-439.741030	486.188353	1290.607663	-280.488353	435.901193	1158.547677	-266.033403	515.650050	1034.376088	6.197864	704.180335	878.237200	-49.512627	453.846343	969.629738	-515.850372	682.894020	883.590473	-436.020012	0.157323	1120.193557	-195.176159	107.059680	1148.930361	-362.567816	153.753772	1109.204124	-61.673060	161.573074	1100.193090	-344.214660	197.431379	1064.931451	-93.882128	37.031937	1144.319585	-136.781272	15.174221	1166.593407	-240.113927	128.642756	957.460451	-37.474298	103.225440	1055.243322	-411.424155	203.686171	843.664806	-48.242787	266.460431	782.154706	-56.007044	284.450905	696.194465	-70.591865	294.929426	798.509419	-73.099551	318.035140	607.028481	-104.823876	301.107467	588.951833	-202.007201	268.353287	521.073479	-70.987985	261.784435	432.197471	-83.407732	213.273086	359.323438	-80.644082	286.478229	426.901363	-113.872006	175.560481	263.326399	-77.623014	178.376752	272.074119	-154.494662	92.855387	255.785604	-116.941880	330.625885	138.087485	-130.235427	252.128888	157.232254	-62.211830	236.613330	1016.342755	-408.026218	321.008728	1016.307122	-396.554029	329.273712	1045.672180	-373.824924	400.514188	973.509640	-402.550713	486.118134	915.934600	-389.186506	500.230713	895.035326	-287.360487	292.904978	602.047098	-411.071918	311.113181	603.494989	-339.987515	213.361397	588.991836	-372.589316	356.146974	487.266245	-431.088972	436.897053	833.414528	-412.176548	410.883298	750.727806	-410.206828	344.963853	690.394719	-410.987652	435.210203	735.818459	-382.225575	447.270600	469.917846	-362.308574	-65.172475	851.901096	-237.917920	20.881460	85.212069	-442.093968	21.094087	84.117710	-43.709171	
1752	8.7600	521.931444	1255.182058	-125.278612	482.380629	1235.322836	-439.679752	485.847178	1290.518645	-281.015493	436.110389	1158.224638	-266.863927	515.075916	1034.003933	5.480010	704.209533	878.075903	-49.564054	453.324168	969.785450	-516.702787	682.753324	883.982384	-436.686506	0.010974	1121.703157	-195.832015	107.106705	1150.323712	-362.848267	153.278684	1110.609778	-61.953514	161.254668	1101.079294	-344.500967	196.873778	1066.223139	-94.037835	36.771982	1145.767710	-137.380826	14.904540	1168.217510	-240.380723	127.802431	958.848440	-37.790887	103.391387	1057.418215	-411.674887	204.654889	845.386068	-48.911632	267.882687	784.215891	-56.255010	286.585564	698.431161	-71.277573	296.461445	800.797717	-72.784341	320.562193	609.060489	-105.320535	303.318872	591.489292	-202.635690	268.815295	524.191599	-71.754621	260.033231	435.519624	-83.794911	209.682879	363.945614	-80.914121	284.546776	429.604881	-114.340027	169.792885	269.193031	-77.504111	170.547569	276.881046	-154.438563	86.700346	263.730735	-116.940556	320.827469	139.190092	-130.086140	242.942792	160.643729	-62.211218	236.557404	1016.055815	-408.135751	320.974108	1015.176398	-396.686880	329.527089	1044.514509	-374.025842	400.133848	971.629920	-402.577396	486.183921	913.984887	-389.260330	499.372806	893.298338	-287.328692	298.013042	595.522236	-411.461431	315.971960	597.722838	-340.297919	218.556276	579.886766	-373.378481	364.890320	483.536696	-431.471443	437.186420	830.223336	-412.329522	412.775426	746.516800	-409.888352	348.187883	685.273258	-411.330707	437.471989	732.487199	-382.478989	456.501148	469.773538	-362.405922	-65.176433	851.912996	-237.892752	20.876535	85.232307	-442.107103	21.111473	84.138175	-43.711019	
1753	8.7650	521.480401	1254.909755	-125.396379	482.833015	1235.225595	-439.594462	485.598356	1290.705946	-281.467878	435.908224	1158.357060	-267.737683	514.494534	1033.546268	4.893231	704.128103	878.069664	-49.664847	452.801630	969.866960	-517.274977	682.968130	885.003341	-437.547775	-0.109817	1123.119796	-196.512673	107.165152	1151.516849	-363.162527	152.599108	1111.915489	-62.398680	161.007958	1101.871879	-344.925464	196.312764	1067.376155	-94.216434	36.456779	1147.119910	-138.040315	14.773644	1169.645511	-241.190991	127.225631	960.057360	-38.458252	103.520409	1059.041063	-411.880865	205.893560	847.134404	-49.536812	269.731310	786.568387	-56.471548	289.233980	700.984881	-71.906320	298.257734	803.349462	-72.726146	323.503078	611.079490	-106.283866	305.809277	594.384775	-203.340708	269.627401	527.411745	-72.668406	258.599826	439.232983	-84.243087	206.328622	369.090157	-81.139046	282.815033	432.639038	-114.835126	164.111481	275.455684	-77.590382	165.320553	283.149933	-154.782177	80.776642	272.016087	-116.998688	311.284770	140.851266	-129.822005	234.012414	164.691188	-62.158301	236.593426	1014.770773	-408.414236	320.931543	1013.553516	-398.094946	329.882527	1042.409798	-374.514199	399.644398	968.681823	-402.892969	485.593266	910.926678	-388.525721	498.403311	890.673900	-287.157568	302.865785	588.158306	-411.879279	320.325669	591.333290	-340.400389	223.273001	569.815334	-374.050463	373.309397	479.051368	-431.795452	437.301776	825.755990	-412.727402	414.574947	741.697524	-410.417865	351.145818	679.233823	-411.712001	439.381847	728.048718	-382.721602	465.297963	469.156398	-362.555245	-65.167926	851.913598	-237.909515	20.888965	85.223245	-442.098727	21.139306	84.140852	-43.704970	
1754	8.7700	520.912415	1254.693918	-125.254376	483.286932	1235.238789	-439.499732	485.482910	1291.162547	-281.277673	435.352446	1158.928833	-268.118098	513.755649	1033.008294	4.307518	703.940823	878.065516	-49.785436	452.382026	970.122236	-518.107794	682.662285	885.063172	-437.569001	-0.173784	1124.296072	-197.331745	107.157067	1152.657190	-363.549004	152.051747	1113.300191	-62.772100	160.878038	1102.513081	-345.547900	195.928868	1068.594867	-94.019510	36.152422	1148.255469	-138.828495	14.586198	1170.806245	-241.537523	127.049136	961.279982	-38.861203	103.695097	1060.099617	-412.181533	207.339433	848.911081	-50.228827	271.877829	789.081621	-56.791825	292.239675	703.742013	-72.498046	300.274426	806.096713	-72.974710	326.814394	613.563562	-106.743526	308.458310	597.488042	-204.306452	270.936158	531.233214	-72.955838	257.462172	443.308340	-84.651186	203.290825	374.557368	-81.342221	281.280898	436.030546	-115.405371	158.653385	281.999526	-77.642605	160.593302	289.617574	-154.999811	75.225856	280.737252	-117.035486	301.980845	143.294670	-129.606459	225.357008	169.295824	-62.107268	236.570820	1012.725850	-408.949936	320.069066	1010.625976	-399.867501	330.287288	1039.360173	-375.497610	399.047490	964.632142	-403.463854	484.321319	905.170649	-389.572602	497.625854	884.225490	-288.790103	307.444472	579.866526	-412.353670	324.190415	583.759585	-340.755496	227.533831	558.516987	-374.353891	381.333313	473.922187	-432.218999	437.216326	820.202449	-413.271218	416.038492	735.498124	-410.817912	353.771634	672.065106	-412.216528	440.967045	722.617038	-383.004395	473.620674	468.004750	-362.831656	-65.166658	851.907578	-237.933051	20.888715	85.212996	-442.106509	21.162578	84.130473	-43.692162	
